<svg xmlns="http://www.w3.org/2000/svg" viewBox="0 0 64 64">
<defs><linearGradient id="bg" x1="0" y1="0" x2="1" y2="1"><stop stop-color="#17191d"/><stop offset="1" stop-color="#050607"/></linearGradient><linearGradient id="metal" x1="0" y1="0" x2="1" y2="1"><stop stop-color="#fff3b5"/><stop offset=".38" stop-color="#d8ad4f"/><stop offset=".72" stop-color="#d79a2b"/><stop offset="1" stop-color="#fff0a0"/></linearGradient><filter id="glow"><feGaussianBlur stdDeviation="2.2" result="b"/><feMerge><feMergeNode in="b"/><feMergeNode in="SourceGraphic"/></feMerge></filter></defs>
<g transform="translate(8 8) scale(2)" fill="none" stroke="url(#metal)" stroke-width="1.8" stroke-linecap="round" stroke-linejoin="round" filter="url(#glow)"><circle cx="12" cy="12" r="3.2"/><path d="M12 2.8v2.1M12 19.1v2.1M2.8 12h2.1M19.1 12h2.1M5.5 5.5 7 7M17 17l1.5 1.5M18.5 5.5 17 7M7 17l-1.5 1.5"/><path d="M8.3 4.3 9 2.5h6l.7 1.8 1.7.7 1.8-.8 2.6 2.6-.8 1.8.7 1.7 1.8.7v3.7l-1.8.7-.7 1.7.8 1.8-2.6 2.6-1.8-.8-1.7.7-.7 1.8H9l-.7-1.8-1.7-.7-1.8.8-2.6-2.6.8-1.8-.7-1.7-1.8-.7V11l1.8-.7L3 8.6l-.8-1.8 2.6-2.6 1.8.8z"/></g></svg>